<svg xmlns="http://www.w3.org/2000/svg" width="1600" height="900" viewBox="0 0 1600 900">
  <defs>
    <linearGradient id="g" x1="0" y1="0" x2="1" y2="1">
      <stop offset="0%" stop-color="#0b3a63"/>
      <stop offset="50%" stop-color="#0f5fa3"/>
      <stop offset="100%" stop-color="#12b3a8"/>
    </linearGradient>
    <radialGradient id="r" cx="70%" cy="20%" r="70%">
      <stop offset="0%" stop-color="#ffffff" stop-opacity="0.22"/>
      <stop offset="60%" stop-color="#ffffff" stop-opacity="0.06"/>
      <stop offset="100%" stop-color="#ffffff" stop-opacity="0"/>
    </radialGradient>
    <filter id="blur" x="-20%" y="-20%" width="140%" height="140%">
      <feGaussianBlur stdDeviation="16"/>
    </filter>
  </defs>

  <rect width="1600" height="900" fill="url(#g)"/>
  <rect width="1600" height="900" fill="url(#r)"/>

  <g filter="url(#blur)" opacity="0.28">
    <circle cx="260" cy="190" r="190" fill="#ffffff"/>
    <circle cx="1320" cy="520" r="270" fill="#ffffff"/>
    <circle cx="980" cy="840" r="230" fill="#ffffff"/>
  </g>

  <g opacity="0.10">
    <path d="M0 160H1600M0 320H1600M0 480H1600M0 640H1600M0 800H1600" stroke="#ffffff" stroke-width="1"/>
    <path d="M160 0V900M320 0V900M480 0V900M640 0V900M800 0V900M960 0V900M1120 0V900M1280 0V900M1440 0V900" stroke="#ffffff" stroke-width="1"/>
  </g>
</svg>
